
<svg width="120px" height="26px" viewBox="0 0 120 26" version="1.1" xmlns="http://www.w3.org/2000/svg" xmlns:xlink="http://www.w3.org/1999/xlink">
    <!-- Generator: Sketch 45 (43475) - http://www.bohemiancoding.com/sketch -->
    <desc>Created with Sketch.</desc>
    <defs></defs>
    <g id="vzw-assets-ola-social-fb-ym" stroke="none" stroke-width="1" fill="none" fill-rule="evenodd">
        <g id="ola-300x600-frame4" transform="translate(-15.000000, -557.000000)">
            <g id="logo" transform="translate(15.000000, 557.000000)">
                <polygon id="Fill-1" fill="#CD040B" points="117.134 -0.000666666667 111.027333 13.106 108.802889 8.33044444 105.936222 8.33044444 109.825111 16.666 112.227333 16.666 120.000667 -0.000666666667"></polygon>
                <path d="M47.8333333,6.336 L52.9222222,6.336 L52.9222222,1.83155556 L47.8333333,1.83155556 L47.8333333,6.336 Z M47.8333333,24.9293333 L52.9222222,24.9293333 L52.9222222,8.33155556 L47.8333333,8.33155556 L47.8333333,24.9293333 Z M16.5733333,16.6004444 C16.5733333,11.6382222 20.04,7.84711111 25.0333333,7.84711111 C27.3666667,7.84711111 29.2133333,8.55822222 30.6066667,9.856 C32.5844444,11.6382222 33.5266667,14.4915556 33.4933333,18.0582222 L21.5311111,18.0582222 C21.7911111,20.296 23.1511111,21.7537778 25.3888889,21.7537778 C26.8288889,21.7537778 27.9377778,21.076 28.3733333,20.0915556 L33.2333333,20.0915556 C32.9688889,21.4137778 31.8777778,22.9404444 30.4466667,23.9248889 C29.0844444,24.8671111 27.4311111,25.416 25.3577778,25.416 C19.8777778,25.416 16.5733333,21.5915556 16.5733333,16.6004444 L16.5733333,16.6004444 Z M28.34,14.7515556 C28.1444444,12.8048889 26.9111111,11.4782222 25.1288889,11.4782222 C23.0222222,11.4782222 21.9511111,12.7737778 21.5644444,14.7515556 L28.34,14.7515556 Z M70.1,16.6648889 C70.1,11.6715556 73.6333333,7.88044444 78.9177778,7.88044444 C84.2022222,7.88044444 87.7333333,11.6715556 87.7333333,16.6648889 C87.7333333,21.6248889 84.2022222,25.4493333 78.9177778,25.4493333 C73.6333333,25.4493333 70.1,21.6248889 70.1,16.6648889 L70.1,16.6648889 Z M82.6111111,16.6648889 C82.6111111,13.5848889 81.2844444,11.6048889 78.8844444,11.6048889 C76.4844444,11.6048889 75.2222222,13.5848889 75.2222222,16.6648889 C75.2222222,19.7093333 76.4844444,21.7204444 78.8844444,21.7204444 C81.2844444,21.7204444 82.6111111,19.7093333 82.6111111,16.6648889 L82.6111111,16.6648889 Z M55.0622222,24.9315556 L69.26,24.9315556 L69.26,20.9426667 L60.8288889,20.9426667 L60.8288889,20.8448889 C61.5422222,20.1315556 62.4866667,19.4204444 63.4266667,18.3826667 L68.9044444,12.2226667 L68.9044444,8.33155556 L55.0622222,8.33155556 L55.0622222,12.3182222 L63.1555556,12.3182222 L63.1555556,12.4182222 C62.7688889,12.8048889 62.0644444,13.3248889 60.8,14.7182222 L55.0622222,21.1048889 L55.0622222,24.9315556 Z M5.76888889,24.9315556 L11.0844444,24.9315556 L16.8555556,8.33155556 L11.7644444,8.33155556 L9.45333333,15.7982222 C8.93777778,17.4515556 8.49111111,20.296 8.49111111,20.296 L8.42666667,20.296 C8.42666667,20.296 8.02222222,17.4515556 7.50222222,15.7982222 L5.21777778,8.33155556 L0,8.33155556 L5.76888889,24.9315556 Z M89.5688889,24.9315556 L94.6244444,24.9315556 L94.6244444,15.6915556 C94.6244444,13.5848889 95.8577778,12.0937778 97.6733333,12.0937778 C99.4222222,12.0937778 100.331111,13.3248889 100.331111,15.076 L100.331111,24.9315556 L105.386667,24.9315556 L105.386667,14.1026667 C105.386667,10.4404444 103.184444,7.84711111 99.62,7.84711111 C97.3488889,7.84711111 95.76,8.81822222 94.56,10.6004444 L94.4644444,10.6004444 L94.4644444,8.33155556 L89.5688889,8.33155556 L89.5688889,24.9315556 Z M35.2911111,8.33155556 L40.1244444,8.33155556 L40.1244444,11.0871111 L40.2222222,11.0871111 C41.3555556,9.14266667 42.6844444,8.236 44.6622222,8.236 C45.1466667,8.236 45.44,8.26711111 45.7,8.36488889 L45.7,12.7404444 L45.6022222,12.7404444 C42.4244444,12.3182222 40.3511111,13.8426667 40.3511111,17.3137778 L40.3511111,24.9315556 L35.2911111,24.9315556 L35.2911111,8.33155556 Z" id="Fill-2" fill="#000000"></path>
            </g>
        </g>
    </g>
</svg>