<?xml version="1.0" encoding="UTF-8"?>
<svg width="114px" height="26px" viewBox="0 0 114 26" version="1.1" xmlns="http://www.w3.org/2000/svg" xmlns:xlink="http://www.w3.org/1999/xlink">
    <!-- Generator: Sketch 46.2 (44496) - http://www.bohemiancoding.com/sketch -->
    <title>VZ LOGO 32pt</title>
    <desc>Created with Sketch.</desc>
    <defs></defs>
    <g id="Specs" stroke="none" stroke-width="1" fill="none" fill-rule="evenodd">
        <g id="SVGs" transform="translate(-564.000000, -405.000000)">
            <g id="VZ-LOGO-32pt" transform="translate(564.000000, 405.000000)">
                <polygon id="Fill-1" fill="#D52B1E" points="110.8863 -0.0004 104.7073 13.2526 102.3713 8.2236 99.8463 8.2236 103.6813 16.4476 105.7213 16.4476 113.3913 -0.0004"></polygon>
                <path d="M45.213,6.8476 L50.236,6.8476 L50.236,2.3996 L45.213,2.3996 L45.213,6.8476 Z M5.696,24.6066 L10.943,24.6066 L16.639,8.2236 L11.615,8.2236 L8.416,18.7506 L8.351,18.7506 L5.152,8.2236 L0,8.2236 L5.696,24.6066 Z M24.127,11.3266 C25.886,11.3266 27.102,12.6396 27.294,14.5586 L20.606,14.5586 C20.991,12.6076 22.047,11.3266 24.127,11.3266 L24.127,11.3266 Z M24.382,21.4706 C22.174,21.4706 20.831,20.0306 20.574,17.8226 L32.382,17.8226 C32.414,14.3026 31.486,11.4866 29.534,9.7276 C28.158,8.4476 26.334,7.7436 24.03,7.7436 C19.103,7.7436 15.678,11.4866 15.678,16.3826 C15.678,21.3106 18.943,25.0866 24.35,25.0866 C26.398,25.0866 28.03,24.5426 29.374,23.6136 C30.814,22.6226 31.838,21.1826 32.126,19.7426 L27.326,19.7426 C26.846,20.8306 25.854,21.4706 24.382,21.4706 L24.382,21.4706 Z M33.565,24.6066 L38.557,24.6066 L38.557,17.0876 C38.557,13.6636 40.605,12.1586 43.741,12.5756 L43.837,12.5756 L43.837,8.2556 C43.581,8.1596 43.293,8.1276 42.813,8.1276 C40.861,8.1276 39.549,9.0236 38.429,10.9436 L38.333,10.9436 L38.333,8.2236 L33.565,8.2236 L33.565,24.6066 Z M45.213,24.6066 L50.236,24.6066 L50.236,8.2246 L45.213,8.2246 L45.213,24.6066 Z M51.613,24.6066 L65.629,24.6066 L65.629,20.6706 L57.693,20.6706 L57.693,20.5746 L65.276,12.0636 L65.276,8.2236 L51.613,8.2236 L51.613,12.1586 L59.293,12.1586 L59.293,12.2556 L51.613,20.8306 L51.613,24.6066 Z M74.492,21.4386 C72.124,21.4386 70.876,19.4546 70.876,16.4466 C70.876,13.4066 72.124,11.4556 74.492,11.4556 C76.859,11.4556 78.172,13.4066 78.172,16.4466 C78.172,19.4546 76.859,21.4386 74.492,21.4386 L74.492,21.4386 Z M74.523,7.7756 C69.307,7.7756 65.82,11.5196 65.82,16.4466 C65.82,21.3426 69.307,25.1186 74.523,25.1186 C79.739,25.1186 83.227,21.3426 83.227,16.4466 C83.227,11.5196 79.739,7.7756 74.523,7.7756 L74.523,7.7756 Z M84.315,24.6066 L89.306,24.6066 L89.306,15.4866 C89.306,13.4066 90.522,11.9346 92.314,11.9346 C94.042,11.9346 94.938,13.1516 94.938,14.8796 L94.938,24.6066 L99.929,24.6066 L99.929,13.9196 C99.929,10.3036 97.755,7.7436 94.234,7.7436 C91.995,7.7436 90.426,8.7036 89.243,10.4636 L89.146,10.4636 L89.146,8.2236 L84.315,8.2236 L84.315,24.6066 Z" id="Fill-2" fill="#000000"></path>
            </g>
        </g>
    </g>
</svg>