<?xml version="1.0" encoding="UTF-8"?>
<svg width="72px" height="16px" viewBox="0 0 72 16" version="1.1" xmlns="http://www.w3.org/2000/svg" xmlns:xlink="http://www.w3.org/1999/xlink">
    <!-- Generator: Sketch 46.2 (44496) - http://www.bohemiancoding.com/sketch -->
    <title>VZ LOGO 20pt</title>
    <desc>Created with Sketch.</desc>
    <defs></defs>
    <g id="Specs" stroke="none" stroke-width="1" fill="none" fill-rule="evenodd">
        <g id="Logos-&amp;-CTAs" transform="translate(-322.000000, -212.000000)">
            <g id="VZ-LOGO-20pt" transform="translate(322.000000, 212.000000)">
                <polygon id="Fill-1" fill="#D52B1E" points="69.6663 0.0006 65.7833 8.3266 64.3163 5.1666 62.7313 5.1666 65.1403 10.3336 66.4213 10.3336 71.2403 0.0006"></polygon>
                <path d="M28.406,4.3022 L31.562,4.3022 L31.562,1.5072 L28.406,1.5072 L28.406,4.3022 Z M3.578,15.4592 L6.875,15.4592 L10.453,5.1662 L7.297,5.1662 L5.287,11.7802 L5.247,11.7802 L3.237,5.1662 L0,5.1662 L3.578,15.4592 Z M15.157,7.1162 C16.263,7.1162 17.028,7.9412 17.148,9.1472 L12.947,9.1472 C13.188,7.9202 13.851,7.1162 15.157,7.1162 L15.157,7.1162 Z M15.319,13.4892 C13.932,13.4892 13.087,12.5842 12.926,11.1972 L20.344,11.1972 C20.364,8.9852 19.781,7.2172 18.555,6.1112 C17.691,5.3072 16.545,4.8642 15.097,4.8642 C12.001,4.8642 9.851,7.2172 9.851,10.2932 C9.851,13.3892 11.901,15.7612 15.298,15.7612 C16.585,15.7612 17.611,15.4192 18.454,14.8362 C19.36,14.2132 20.002,13.3082 20.184,12.4032 L17.168,12.4032 C16.866,13.0872 16.243,13.4892 15.319,13.4892 L15.319,13.4892 Z M21.088,15.4592 L24.224,15.4592 L24.224,10.7352 C24.224,8.5842 25.511,7.6392 27.481,7.9002 L27.541,7.9002 L27.541,5.1872 C27.38,5.1262 27.199,5.1072 26.898,5.1072 C25.672,5.1072 24.848,5.6692 24.144,6.8752 L24.083,6.8752 L24.083,5.1662 L21.088,5.1662 L21.088,15.4592 Z M28.406,15.4592 L31.562,15.4592 L31.562,5.1662 L28.406,5.1662 L28.406,15.4592 Z M32.427,15.4592 L41.232,15.4592 L41.232,12.9862 L36.246,12.9862 L36.246,12.9262 L41.011,7.5782 L41.011,5.1662 L32.427,5.1662 L32.427,7.6392 L37.251,7.6392 L37.251,7.6992 L32.427,13.0872 L32.427,15.4592 Z M46.801,13.4692 C45.313,13.4692 44.53,12.2232 44.53,10.3332 C44.53,8.4232 45.313,7.1962 46.801,7.1962 C48.288,7.1962 49.113,8.4232 49.113,10.3332 C49.113,12.2232 48.288,13.4692 46.801,13.4692 L46.801,13.4692 Z M46.821,4.8852 C43.544,4.8852 41.353,7.2372 41.353,10.3332 C41.353,13.4092 43.544,15.7812 46.821,15.7812 C50.098,15.7812 52.288,13.4092 52.288,10.3332 C52.288,7.2372 50.098,4.8852 46.821,4.8852 L46.821,4.8852 Z M52.973,15.4592 L56.109,15.4592 L56.109,9.7302 C56.109,8.4232 56.872,7.4982 57.998,7.4982 C59.083,7.4982 59.647,8.2632 59.647,9.3482 L59.647,15.4592 L62.782,15.4592 L62.782,8.7452 C62.782,6.4732 61.416,4.8642 59.204,4.8642 C57.797,4.8642 56.812,5.4682 56.069,6.5732 L56.008,6.5732 L56.008,5.1662 L52.973,5.1662 L52.973,15.4592 Z" id="Fill-2" fill="#000000"></path>
            </g>
        </g>
    </g>
</svg>