<?xml version="1.0" encoding="UTF-8"?>
<svg width="89px" height="20px" viewBox="0 0 89 20" version="1.1" xmlns="http://www.w3.org/2000/svg" xmlns:xlink="http://www.w3.org/1999/xlink">
    <!-- Generator: Sketch 46.2 (44496) - http://www.bohemiancoding.com/sketch -->
    <title>VZ LOGO 25pt</title>
    <desc>Created with Sketch.</desc>
    <defs></defs>
    <g id="Specs" stroke="none" stroke-width="1" fill="none" fill-rule="evenodd">
        <g id="SVGs" transform="translate(-80.000000, -411.000000)">
            <g id="VZ-LOGO-25pt" transform="translate(80.000000, 411.000000)">
                <polygon id="Fill-1" fill="#D52B1E" points="86.657 0.0003 81.828 10.3573 80.003 6.4263 78.03 6.4263 81.026 12.8533 82.621 12.8533 88.615 0.0003"></polygon>
                <path d="M35.334,5.3522 L39.26,5.3522 L39.26,1.8762 L35.334,1.8762 L35.334,5.3522 Z M4.451,19.2302 L8.552,19.2302 L13.003,6.4262 L9.077,6.4262 L6.577,14.6542 L6.526,14.6542 L4.026,6.4262 L0,6.4262 L4.451,19.2302 Z M18.854,8.8522 C20.229,8.8522 21.18,9.8782 21.33,11.3782 L16.103,11.3782 C16.404,9.8522 17.229,8.8522 18.854,8.8522 L18.854,8.8522 Z M19.055,16.7792 C17.329,16.7792 16.279,15.6542 16.079,13.9282 L25.307,13.9282 C25.331,11.1772 24.605,8.9772 23.08,7.6022 C22.006,6.6012 20.58,6.0512 18.779,6.0512 C14.929,6.0512 12.253,8.9772 12.253,12.8032 C12.253,16.6542 14.804,19.6052 19.029,19.6052 C20.63,19.6052 21.905,19.1792 22.956,18.4552 C24.081,17.6792 24.881,16.5542 25.106,15.4292 L21.355,15.4292 C20.98,16.2792 20.205,16.7792 19.055,16.7792 L19.055,16.7792 Z M26.231,19.2302 L30.133,19.2302 L30.133,13.3532 C30.133,10.6772 31.732,9.5032 34.184,9.8282 L34.259,9.8282 L34.259,6.4522 C34.059,6.3772 33.833,6.3512 33.458,6.3512 C31.933,6.3512 30.907,7.0512 30.032,8.5522 L29.957,8.5522 L29.957,6.4262 L26.231,6.4262 L26.231,19.2302 Z M35.334,19.2302 L39.26,19.2302 L39.26,6.4262 L35.334,6.4262 L35.334,19.2302 Z M40.336,19.2302 L51.288,19.2302 L51.288,16.1542 L45.087,16.1542 L45.087,16.0792 L51.014,9.4272 L51.014,6.4262 L40.336,6.4262 L40.336,9.5032 L46.337,9.5032 L46.337,9.5782 L40.336,16.2792 L40.336,19.2302 Z M58.215,16.7542 C56.364,16.7542 55.39,15.2042 55.39,12.8532 C55.39,10.4772 56.364,8.9522 58.215,8.9522 C60.065,8.9522 61.091,10.4772 61.091,12.8532 C61.091,15.2042 60.065,16.7542 58.215,16.7542 L58.215,16.7542 Z M58.24,6.0772 C54.164,6.0772 51.438,9.0032 51.438,12.8532 C51.438,16.6792 54.164,19.6302 58.24,19.6302 C62.316,19.6302 65.042,16.6792 65.042,12.8532 C65.042,9.0032 62.316,6.0772 58.24,6.0772 L58.24,6.0772 Z M65.892,19.2302 L69.793,19.2302 L69.793,12.1032 C69.793,10.4772 70.743,9.3272 72.144,9.3272 C73.494,9.3272 74.194,10.2782 74.194,11.6282 L74.194,19.2302 L78.095,19.2302 L78.095,10.8782 C78.095,8.0522 76.395,6.0512 73.644,6.0512 C71.894,6.0512 70.668,6.8012 69.743,8.1772 L69.668,8.1772 L69.668,6.4262 L65.892,6.4262 L65.892,19.2302 Z" id="Fill-2" fill="#000000"></path>
            </g>
        </g>
    </g>
</svg>